<mxfile host="app.diagrams.net" modified="2023-11-30T16:37:01.828Z" agent="Mozilla/5.0 (Windows NT 10.0; Win64; x64) AppleWebKit/537.36 (KHTML, like Gecko) Chrome/119.0.0.0 Safari/537.36" etag="cITyj01KNn6_X-5wr1zU" version="22.1.5" type="device">
  <diagram name="PÃ¡gina-1" id="HwjgrbFXt-2zYWqdgGZI">
    <mxGraphModel dx="2074" dy="772" grid="1" gridSize="10" guides="1" tooltips="1" connect="1" arrows="1" fold="1" page="1" pageScale="1" pageWidth="827" pageHeight="1169" math="0" shadow="0">
      <root>
        <mxCell id="0" />
        <mxCell id="1" parent="0" />
        <mxCell id="tycgz1gLb-lpHva56W2S-1" value="User" style="swimlane;fontStyle=0;childLayout=stackLayout;horizontal=1;startSize=26;horizontalStack=0;resizeParent=1;resizeParentMax=0;resizeLast=0;collapsible=1;marginBottom=0;html=1;fillColor=#000000;fontColor=#FAFAFA;" vertex="1" parent="1">
          <mxGeometry x="160" y="80" width="150" height="78" as="geometry" />
        </mxCell>
        <mxCell id="tycgz1gLb-lpHva56W2S-2" value="name: String&lt;br&gt;" style="text;strokeColor=none;fillColor=none;align=left;verticalAlign=top;spacingLeft=4;spacingRight=4;overflow=hidden;rotatable=0;points=[[0,0.5],[1,0.5]];portConstraint=eastwest;whiteSpace=wrap;html=1;" vertex="1" parent="tycgz1gLb-lpHva56W2S-1">
          <mxGeometry y="26" width="150" height="26" as="geometry" />
        </mxCell>
        <mxCell id="tycgz1gLb-lpHva56W2S-3" value="password: String" style="text;strokeColor=none;fillColor=none;align=left;verticalAlign=top;spacingLeft=4;spacingRight=4;overflow=hidden;rotatable=0;points=[[0,0.5],[1,0.5]];portConstraint=eastwest;whiteSpace=wrap;html=1;" vertex="1" parent="tycgz1gLb-lpHva56W2S-1">
          <mxGeometry y="52" width="150" height="26" as="geometry" />
        </mxCell>
        <mxCell id="tycgz1gLb-lpHva56W2S-5" value="Profile" style="swimlane;fontStyle=0;childLayout=stackLayout;horizontal=1;startSize=26;horizontalStack=0;resizeParent=1;resizeParentMax=0;resizeLast=0;collapsible=1;marginBottom=0;align=center;fontSize=14;fontColor=#F7F7F7;fillColor=#000000;" vertex="1" parent="1">
          <mxGeometry x="430" y="80" width="180" height="188" as="geometry" />
        </mxCell>
        <mxCell id="tycgz1gLb-lpHva56W2S-6" value="name: String" style="text;strokeColor=none;fillColor=none;spacingLeft=4;spacingRight=4;overflow=hidden;rotatable=0;points=[[0,0.5],[1,0.5]];portConstraint=eastwest;fontSize=12;whiteSpace=wrap;html=1;" vertex="1" parent="tycgz1gLb-lpHva56W2S-5">
          <mxGeometry y="26" width="180" height="30" as="geometry" />
        </mxCell>
        <mxCell id="tycgz1gLb-lpHva56W2S-7" value="surname: String" style="text;strokeColor=none;fillColor=none;spacingLeft=4;spacingRight=4;overflow=hidden;rotatable=0;points=[[0,0.5],[1,0.5]];portConstraint=eastwest;fontSize=12;whiteSpace=wrap;html=1;" vertex="1" parent="tycgz1gLb-lpHva56W2S-5">
          <mxGeometry y="56" width="180" height="30" as="geometry" />
        </mxCell>
        <mxCell id="tycgz1gLb-lpHva56W2S-8" value="dateOfBirth: String" style="text;strokeColor=none;fillColor=none;spacingLeft=4;spacingRight=4;overflow=hidden;rotatable=0;points=[[0,0.5],[1,0.5]];portConstraint=eastwest;fontSize=12;whiteSpace=wrap;html=1;" vertex="1" parent="tycgz1gLb-lpHva56W2S-5">
          <mxGeometry y="86" width="180" height="34" as="geometry" />
        </mxCell>
        <mxCell id="tycgz1gLb-lpHva56W2S-10" value="comments: String&lt;br&gt;" style="text;strokeColor=none;fillColor=none;spacingLeft=4;spacingRight=4;overflow=hidden;rotatable=0;points=[[0,0.5],[1,0.5]];portConstraint=eastwest;fontSize=12;whiteSpace=wrap;html=1;" vertex="1" parent="tycgz1gLb-lpHva56W2S-5">
          <mxGeometry y="120" width="180" height="34" as="geometry" />
        </mxCell>
        <mxCell id="tycgz1gLb-lpHva56W2S-12" value="rol: ENUM(&#39;Admin&#39;,&#39;Empleado&#39;)" style="text;strokeColor=none;fillColor=none;spacingLeft=4;spacingRight=4;overflow=hidden;rotatable=0;points=[[0,0.5],[1,0.5]];portConstraint=eastwest;fontSize=12;whiteSpace=wrap;html=1;" vertex="1" parent="tycgz1gLb-lpHva56W2S-5">
          <mxGeometry y="154" width="180" height="34" as="geometry" />
        </mxCell>
        <mxCell id="tycgz1gLb-lpHva56W2S-13" value="Credentials" style="swimlane;fontStyle=0;childLayout=stackLayout;horizontal=1;startSize=26;horizontalStack=0;resizeParent=1;resizeParentMax=0;resizeLast=0;collapsible=1;marginBottom=0;align=center;fontSize=14;fillColor=#000000;fontColor=#FFFFFF;" vertex="1" parent="1">
          <mxGeometry x="155" y="200" width="160" height="116" as="geometry" />
        </mxCell>
        <mxCell id="tycgz1gLb-lpHva56W2S-14" value="address: String" style="text;strokeColor=none;fillColor=none;spacingLeft=4;spacingRight=4;overflow=hidden;rotatable=0;points=[[0,0.5],[1,0.5]];portConstraint=eastwest;fontSize=12;whiteSpace=wrap;html=1;" vertex="1" parent="tycgz1gLb-lpHva56W2S-13">
          <mxGeometry y="26" width="160" height="30" as="geometry" />
        </mxCell>
        <mxCell id="tycgz1gLb-lpHva56W2S-15" value="phone: Number" style="text;strokeColor=none;fillColor=none;spacingLeft=4;spacingRight=4;overflow=hidden;rotatable=0;points=[[0,0.5],[1,0.5]];portConstraint=eastwest;fontSize=12;whiteSpace=wrap;html=1;" vertex="1" parent="tycgz1gLb-lpHva56W2S-13">
          <mxGeometry y="56" width="160" height="30" as="geometry" />
        </mxCell>
        <mxCell id="tycgz1gLb-lpHva56W2S-16" value="email: String" style="text;strokeColor=none;fillColor=none;spacingLeft=4;spacingRight=4;overflow=hidden;rotatable=0;points=[[0,0.5],[1,0.5]];portConstraint=eastwest;fontSize=12;whiteSpace=wrap;html=1;" vertex="1" parent="tycgz1gLb-lpHva56W2S-13">
          <mxGeometry y="86" width="160" height="30" as="geometry" />
        </mxCell>
      </root>
    </mxGraphModel>
  </diagram>
</mxfile>
